<svg width="28" height="23" viewBox="0 0 28 23" fill="none" xmlns="http://www.w3.org/2000/svg">
<path d="M1 18V7.6648C1 6.74939 1.31398 5.86167 1.88954 5.14983L4.04417 2.48503C4.8036 1.54579 5.94678 1 7.15463 1H20.8454C22.0532 1 23.1964 1.54579 23.9558 2.48503L26.1105 5.14983C26.686 5.86167 27 6.74939 27 7.6648V18C27 20.2091 25.2091 22 23 22H5C2.79086 22 1 20.2091 1 18Z" stroke="black" stroke-width="2"/>
<path d="M1 6.25C1 6.25 5.2449 10.45 14 10.45C22.7551 10.45 27 6.25 27 6.25" stroke="black" stroke-width="2"/>
<path d="M18.3327 13.6001C18.3327 15.9197 16.3926 17.8001 13.9993 17.8001C11.6061 17.8001 9.66602 15.9197 9.66602 13.6001" stroke="black" stroke-width="2" stroke-linecap="round"/>
</svg>
